<?xml version="1.0" encoding="UTF-8"?>
<!DOCTYPE svg PUBLIC "-//W3C//DTD SVG 1.1//EN" "http://www.w3.org/Graphics/SVG/1.1/DTD/svg11.dtd">
<!-- Creator: CorelDRAW X6 -->
<svg xmlns="http://www.w3.org/2000/svg" xml:space="preserve" width="3.54333in" height="3.54333in" version="1.1" style="shape-rendering:geometricPrecision; text-rendering:geometricPrecision; image-rendering:optimizeQuality; fill-rule:evenodd; clip-rule:evenodd"
viewBox="0 0 3543 3543"
 xmlns:xlink="http://www.w3.org/1999/xlink">
 <defs>
  <style type="text/css">
   <![CDATA[
    .fil1 {fill:#373435;fill-rule:nonzero}
    .fil0 {fill:#22984F;fill-rule:nonzero}
   ]]>
  </style>
 </defs>
 <g id="__x0023_Layer_x0020_1">
  <metadata id="CorelCorpID_0Corel-Layer"/>
  <g id="_275090056">
   <g>
    <g>
     <path class="fil0" d="M1541 2083l-84 -290c-3,5 -6,11 -9,16 -10,19 -19,37 -27,52 -8,15 -15,30 -21,45 -7,-15 -15,-30 -23,-46 -8,-16 -17,-33 -27,-52 -10,-19 -22,-41 -36,-65 -14,-24 -30,-52 -48,-85l-132 -233c-15,-27 -34,-49 -56,-64 -22,-16 -50,-23 -83,-23 -32,0 -61,9 -88,28 -26,19 -45,47 -57,86l-213 726 250 0 78 -287c12,-47 23,-88 32,-124 9,-36 17,-70 23,-103 6,14 13,28 20,43 7,15 15,31 25,49 9,18 20,38 32,60 11,22 25,47 39,75l111 209c11,21 22,37 33,49 11,12 22,21 34,28 11,7 24,11 37,13 13,2 28,3 43,3 16,0 30,-1 43,-3 13,-2 26,-6 37,-13 11,-7 23,-16 34,-28 11,-12 22,-28 33,-49l3 -5c-1,-3 -2,-6 -3,-10z"/>
     <path class="fil0" d="M1947 1452c-12,-39 -30,-67 -56,-86 -26,-18 -55,-28 -87,-28 -34,0 -62,8 -85,24 -22,16 -41,37 -56,64l-10 18 52 190c11,38 20,71 27,100 13,-26 24,-49 35,-71 7,34 14,68 23,104 9,35 20,77 33,123l78 287 254 0 -208 -726z"/>
    </g>
    <g>
     <path class="fil1" d="M1803 1895c-11,-38 -20,-72 -28,-103 -13,27 -25,51 -35,74 -7,-34 -14,-68 -23,-104 -9,-35 -20,-76 -33,-123l-78 -287 -255 0 210 725c11,39 30,67 56,86 26,19 55,28 87,28 34,0 62,-8 85,-24 23,-16 41,-37 56,-64l10 -17 -52 -190z"/>
     <path class="fil1" d="M2621 1352l-78 287c-12,46 -23,87 -33,123 -9,36 -17,71 -24,104 -7,-14 -13,-28 -20,-43 -7,-15 -15,-31 -24,-49 -9,-18 -19,-37 -31,-59 -12,-22 -25,-47 -41,-76l-110 -209c-11,-21 -22,-37 -33,-49 -11,-12 -23,-21 -35,-28 -12,-7 -25,-11 -38,-13 -13,-2 -28,-3 -43,-3 -15,0 -29,1 -42,3 -13,2 -26,6 -38,13 -12,7 -23,16 -34,28 -11,12 -21,28 -32,49l-3 5c1,3 2,6 3,10l83 290c3,-5 6,-10 8,-15 10,-19 19,-37 27,-52 8,-16 15,-31 22,-46 7,15 15,30 23,46 8,16 17,33 28,52 11,19 23,41 36,65 13,24 29,52 47,85l132 233c16,27 35,49 57,64 23,16 50,23 83,23 32,0 61,-9 87,-28 26,-18 45,-47 56,-86l213 -725 -249 0z"/>
    </g>
   </g>
   <path class="fil0" d="M1726 377c-395,0 -751,166 -1002,431 240,-234 567,-379 929,-379 734,0 1329,595 1329,1329 0,734 -595,1329 -1329,1329 -362,0 -689,-145 -929,-379 252,265 608,431 1002,431 763,0 1381,-618 1381,-1381 0,-763 -618,-1381 -1381,-1381z"/>
   <path class="fil1" d="M1670 3019c360,0 685,-151 914,-393 -219,214 -518,346 -847,346 -670,0 -1212,-543 -1212,-1212 0,-670 543,-1212 1212,-1212 330,0 629,132 847,346 -230,-242 -554,-393 -914,-393 -696,0 -1260,564 -1260,1260 0,696 564,1260 1260,1260z"/>
  </g>
 </g>
</svg>
